<svg xmlns="http://www.w3.org/2000/svg" viewBox="0 0 32 32" width="32" height="32">
  <rect width="32" height="32" rx="6" fill="#0D1B2A"/>
  <g transform="translate(4, 9)">
    <path d="M2 10 L2 8 Q2 7 3 7 L4.5 7 L6 4 Q6.5 3 7.5 3 L16.5 3 Q17.5 3 18 4 L19.5 7 L21 7 Q22 7 22 8 L22 10 Q22 11 21 11 L20.5 11 Q20.5 13 18.5 13 Q16.5 13 16.5 11 L7.5 11 Q7.5 13 5.5 13 Q3.5 13 3.5 11 L3 11 Q2 11 2 10 Z" fill="#3B82F6"/>
    <circle cx="5.5" cy="11.5" r="1.5" fill="#0D1B2A"/>
    <circle cx="18.5" cy="11.5" r="1.5" fill="#0D1B2A"/>
    <path d="M7 6.5 L9 4.5 L15 4.5 L17 6.5 Z" fill="#0D1B2A" opacity="0.4"/>
  </g>
</svg>
